Coordinates
version=1
nRows=16
nColumns=36
inDegrees=yes

Units are S.I. units (second, meters, Newtons, ...)
If the header above contains a line with 'inDegrees', this indicates whether rotational values are in degrees (yes) or radians (no).

endheader
time	pelvis_tilt	pelvis_list	pelvis_rotation	pelvis_tx	pelvis_ty	pelvis_tz	hip_flexion_r	hip_adduction_r	hip_rotation_r	knee_angle_r	knee_angle_r_beta	ankle_angle_r	subtalar_angle_r	mtp_angle_r	hip_flexion_l	hip_adduction_l	hip_rotation_l	knee_angle_l	knee_angle_l_beta	ankle_angle_l	subtalar_angle_l	mtp_angle_l	lumbar_extension	lumbar_bending	lumbar_rotation	arm_flex_r	arm_add_r	arm_rot_r	elbow_flex_r	pro_sup_r	arm_flex_l	arm_add_l	arm_rot_l	elbow_flex_l	pro_sup_l
      3.17916670	    -42.19336614	     -6.75541462	      2.85420912	      0.42629762	      0.87152768	     -0.19494739	     55.69082467	     -2.40770231	      4.90703450	     29.20229374	      0.50967617	      1.86014971	    -14.16835214	     -7.49999987	     59.38209472	     -4.10071643	      9.32087209	     33.19835250	      0.57942056	      0.55283330	    -16.07198172	     -7.49999987	    -32.89261344	     -3.92648870	      0.09190090	     40.49411097	      0.15759251	      6.07206900	     44.11948372	     85.71320175	    403.92437142	     -8.70299922	    350.18925377	     22.76994683	     63.08523412
      3.18333330	    -41.96532167	     -6.58268826	      2.90663785	      0.43200123	      0.87323442	     -0.19550465	     54.77635681	     -2.51924829	      4.75462871	     28.25209618	      0.49309210	      1.13850066	    -14.42559210	     -7.49999987	     58.27914352	     -4.12510676	      9.25692789	     32.02718759	      0.55897987	     -0.16610568	    -16.07183707	     -7.49999987	    -32.53906446	     -3.89939576	      0.20549721	     38.96237590	     -0.40246359	      5.98559541	     43.84478593	     85.19855529	    402.48024524	     -8.73132726	    348.30719538	     22.49876376	     63.11269493
      3.18750000	    -42.02952884	     -6.34503697	      3.07992508	      0.43090718	      0.87644517	     -0.19760930	     54.29669438	     -2.87684798	      4.58008070	     27.41256595	      0.47843953	      0.68906032	    -14.07885923	     -7.49999987	     57.69177131	     -3.96102905	      8.86568218	     31.00918448	      0.54121237	     -0.43747566	    -15.51246667	     -7.49999987	    -32.05856291	     -3.82487854	      0.18244474	     37.54544388	     -0.96135135	      5.81725629	     43.39677928	     85.24007989	    401.34453888	     -8.94644604	    348.00404968	     21.89299974	     63.14495206
      3.19166670	    -41.93100522	     -6.28010498	      3.38190392	      0.43528483	      0.87681294	     -0.19256623	     53.53803644	     -2.97458880	      4.53859651	     26.53321846	      0.46309202	      0.54275723	    -14.05159828	     -7.49999987	     56.74299978	     -4.10438757	      8.43236575	     29.57024664	      0.51609816	     -0.62997621	    -14.67623401	     -7.49999987	    -31.60352620	     -3.91244176	      0.23388861	     35.77315805	     -0.99570580	      3.80838951	     43.28948422	     87.79818089	    400.38887201	     -8.67010055	    342.56887609	     20.94820557	     67.12245061
      3.19583330	    -41.91730821	     -6.11210399	      3.60704301	      0.44229175	      0.87724930	     -0.19641522	     52.79328720	     -3.23111374	      4.44759295	     25.74440644	      0.44932466	      0.44645410	    -14.01737675	     -7.49999987	     55.71014948	     -3.99468896	      8.09861867	     28.19177438	      0.49203928	     -0.73118863	    -14.27606279	     -7.49999987	    -30.84139897	     -3.73664798	      0.19084974	     34.01680772	     -1.32490485	      3.71278251	     42.80149264	     87.81200353	    398.70928967	     -8.88201173	    342.45470117	     20.38444658	     67.17811522
      3.20000000	    -41.79990798	     -5.74655810	      3.67155208	      0.44811764	      0.88298258	     -0.20332036	     51.72226910	     -3.68670121	      4.61854725	     24.55870689	      0.42863030	      0.14758510	    -13.60715567	     -7.49999987	     54.33523744	     -3.68306391	      7.68325255	     26.55316904	      0.46344023	     -1.06331016	    -13.75700657	     -7.49999987	    -30.39641155	     -3.67472430	     -0.00076958	     32.48742187	     -1.56637538	      3.39383073	     42.25658772	     87.81321989	    396.94577856	     -8.99268338	    342.31816718	     19.76476686	     67.25467838
      3.20416670	    -40.50443541	     -5.04465100	      3.67119483	      0.45548183	      0.88772038	     -0.20876945	     49.36972874	     -4.32396974	      4.91920255	     23.39730216	      0.40835996	      0.01013131	    -12.74031752	     -7.49999987	     51.49161956	     -3.15494512	      7.06301717	     24.82145938	      0.43321619	     -1.52182699	    -13.51961066	     -7.49999987	    -31.37744325	     -3.75095831	     -0.34134630	     31.58788287	     -1.56801852	      2.10296399	     41.24308093	     87.88930008	    395.38961240	     -9.06185802	    341.93492612	     19.31133849	     67.67453832
      3.20833330	    -39.74212428	     -4.41870285	      3.46072844	      0.46124682	      0.89014364	     -0.21149840	     47.60506656	     -4.88475939	      5.25125875	     22.19676475	      0.38740663	     -0.42797782	    -12.17926759	     -7.49999987	     49.21941203	     -2.68550737	      6.59962871	     23.18575353	      0.40466774	     -1.97149912	    -13.64899122	     -7.49999987	    -31.59876475	     -3.80627731	     -0.45842437	     30.38246585	     -1.94263572	      1.42830354	     40.68428127	     87.38461553	    393.49775012	     -8.64180932	    339.90785981	     19.30320476	     67.87499528
      3.21250000	    -39.10145738	     -3.89068096	      3.07766699	      0.46292685	      0.89209663	     -0.21168337	     46.16714986	     -5.27554734	      5.29505052	     21.06381110	      0.36763286	     -0.92205324	    -11.62832511	     -7.49999987	     47.27430690	     -2.39629124	      6.28332738	     21.68253683	      0.37843166	     -2.43254741	    -13.79689093	     -7.49999987	    -31.66035866	     -3.86765143	     -0.47594196	     29.48657719	     -2.21486360	      1.07739165	     40.04941362	     87.56107281	    391.58933605	     -8.49702798	    338.25207190	     19.46276614	     68.40393817
      3.21666670	    -38.34064441	     -3.42976687	      2.77534612	      0.46546985	      0.89525131	     -0.21041732	     44.68249224	     -5.56853717	      5.18698619	     20.00318102	      0.34912137	     -1.15698751	    -10.91004648	     -7.49999987	     45.33350714	     -2.19228457	      5.99770685	     20.31319740	      0.35453218	     -2.54967495	    -13.74567878	     -7.49999987	    -31.82684270	     -4.03375347	     -0.27103650	     28.42270294	     -2.37590053	     -0.94317278	     39.89695884	     92.22597581	    390.39740510	     -8.35445417	    335.40968381	     18.65964246	     78.19513095
      3.22083330	    -38.07656472	     -3.19554889	      2.57015220	      0.46619482	      0.89833030	     -0.20543936	     43.82900613	     -5.52305261	      5.20649690	     18.95834104	      0.33088547	     -1.60067721	    -10.72164235	     -7.49999987	     44.05725045	     -2.26166140	      5.88283933	     18.82171388	      0.32850088	     -2.91770686	    -13.79624218	     -7.49999987	    -31.46082565	     -4.37356281	     -0.17568497	     27.33591086	     -2.40479558	     -1.20967171	     39.54133585	     92.13865229	    389.15917636	     -8.78665624	    335.10915092	     18.37233284	     78.19087706
      3.22500000	    -37.33261524	     -3.00358424	      2.41256226	      0.47295997	      0.90234842	     -0.20432987	     42.28846779	     -5.42629898	      5.07414407	     17.83162133	      0.31122050	     -1.81135560	    -10.30138088	     -7.49999987	     42.22102089	     -2.36908062	      5.89573210	     17.34676773	      0.30275821	     -3.22567294	    -13.84218642	     -7.49999987	    -31.57597623	     -4.65741118	     -0.23239602	     26.44001655	     -2.27142201	     -1.90371334	     39.00409144	     91.97178456	    387.90853398	     -9.28693688	    334.52078049	     18.19920821	     78.19914372
      3.22916670	    -36.81554740	     -2.86550395	      2.32351884	      0.47856180	      0.90531689	     -0.20278566	     40.95021465	     -5.27511872	      5.06057065	     16.76243024	      0.29255960	     -1.99018970	    -10.02030023	     -7.49999987	     40.63201345	     -2.54802239	      5.66713220	     15.92243822	      0.27789897	     -3.65180833	    -13.68415347	     -7.49999987	    -31.56402548	     -4.95535757	     -0.21091507	     25.31181448	     -2.24831555	     -2.21354269	     38.58686492	     91.46801405	    386.54777758	     -9.42000091	    332.34126645	     18.62961922	     77.99322691
      3.23333330	    -36.41941946	     -2.74435009	      2.07954756	      0.47711080	      0.90685676	     -0.20180067	     40.04028491	     -5.10107647	      4.98169526	     15.86406758	      0.27688021	     -2.14808174	     -9.50458131	     -7.49999987	     39.30283163	     -2.80340533	      5.29396567	     14.49324537	      0.25295485	     -3.79206509	    -13.00815497	     -7.49999987	    -31.35537236	     -5.20869792	     -0.06167110	     24.64185908	     -2.24821098	     -2.70232925	     38.40159490	     91.37086581	    385.45261676	     -9.72190353	    332.19025584	     18.35726437	     78.17206966
      3.23750000	    -36.13080068	     -2.71071931	      1.93822915	      0.48098061	      0.90661532	     -0.20353919	     39.19887547	     -5.00196656	      4.97745268	     14.99372092	      0.26168980	     -2.49231280	     -9.35679446	     -7.49999987	     38.19313299	     -2.90231650	      5.35890943	     13.30797672	      0.23226801	     -4.10881695	    -12.93197845	     -7.49999987	    -30.95312131	     -5.32226343	      0.03332760	     23.67867945	     -2.25897767	     -2.84050694	     38.28170436	     90.45803624	    383.99858888	     -9.63301496	    330.13250192	     18.92221097	     77.69598660
      3.24166670	    -35.62492471	     -2.64985876	      1.80517273	      0.48628067	      0.90972100	     -0.20364905	     38.03178530	     -4.95777153	      4.81358128	     14.10634111	      0.24620210	     -2.63846960	     -8.66476639	     -7.49999987	     36.79050980	     -3.02309015	      5.18912853	     12.08418941	      0.21090889	     -4.08544853	    -12.25759673	     -7.49999987	    -30.76586652	     -5.55703711	      0.01939083	     22.87691538	     -2.20065185	     -3.34008531	     37.68499147	     89.88220986	    382.72946707	     -9.86178139	    329.45464694	     18.52816066	     78.15758652
